<svg id="Solid_G" height="512" viewBox="0 0 512 512" width="512" xmlns="http://www.w3.org/2000/svg" xmlns:xlink="http://www.w3.org/1999/xlink" data-name="Solid G"><linearGradient id="linear-gradient" gradientUnits="userSpaceOnUse" x1="256" x2="256" y1=".443" y2="510.734"><stop offset="0" stop-color="#ff91d2"/><stop offset=".262" stop-color="#f68bd9"/><stop offset=".688" stop-color="#de79ed"/><stop offset=".999" stop-color="#c86aff"/></linearGradient><linearGradient id="linear-gradient-2" x1="172" x2="172" xlink:href="#linear-gradient" y1=".443" y2="510.734"/><linearGradient id="linear-gradient-3" x1="334.472" x2="334.472" xlink:href="#linear-gradient" y1=".443" y2="510.734"/><linearGradient id="linear-gradient-4" x1="406.155" x2="406.155" xlink:href="#linear-gradient" y1=".443" y2="510.734"/><linearGradient id="linear-gradient-5" x1="454.343" x2="454.343" xlink:href="#linear-gradient" y1=".443" y2="510.734"/><linearGradient id="linear-gradient-6" x1="221.974" x2="221.974" xlink:href="#linear-gradient" y1=".443" y2="510.734"/><linearGradient id="linear-gradient-7" x1="86.472" x2="86.472" xlink:href="#linear-gradient" y1=".443" y2="510.734"/><linearGradient id="linear-gradient-8" x1="400" x2="400" xlink:href="#linear-gradient" y1=".443" y2="510.734"/><linearGradient id="linear-gradient-11" x1="345.528" x2="345.528" xlink:href="#linear-gradient" y1=".443" y2="510.734"/><g><path d="m445.754 472-4-16h-83.508l-4 16h-50.246v-24h-56v24h-16v-32a8 8 0 0 1 8-8h64v-24h-96v4.686l5.657 5.657a8 8 0 0 1 2.343 5.657v48h-16v-44.687l-40-40-40 40v44.687h-16v-48a8 8 0 0 1 2.343-5.657l13.657-13.657v-88.773l-56-43.556v-32.357h-16v232h-32v16h480v-16zm-357.754-144h16v16h-16zm0 48h16v16h-16zm-24-72h16v16h-16zm0 48h16v16h-16zm0 48h16v16h-16zm88 72v-32h16v32z" fill="url(#linear-gradient)"/><path d="m200 112v-16h-48v16h16v64h-2.8l-12.243 27.548 11.686 20.452h3.357v28.687l-21.657 21.656a8 8 0 0 0 -1.932 8.187l8 24a8 8 0 0 0 7.589 5.47h32a8 8 0 0 0 8-8v-24h-16v16h-18.234l-4.613-13.839 20.5-20.5a8 8 0 0 0 2.347-5.661v-32h3.357l11.687-20.452-12.244-27.548h-2.8v-64zm-16 96h-16v-16h16z" fill="url(#linear-gradient-2)"/><path d="m316.944 160 8 16h43.056v-48h-67.056l8 16h27.056v16z" fill="url(#linear-gradient-3)"/><path d="m424 24h-10.801l-24.889 56h35.69z" fill="url(#linear-gradient-4)"/><path d="m440 51.314v28.686h28.686z" fill="url(#linear-gradient-5)"/><path d="m387.947 41.421-331.947 37.722v.857h314.801z" fill="url(#linear-gradient-6)"/><path d="m136 112v-16h-99.056l8 16z" fill="url(#linear-gradient-7)"/><g fill="url(#linear-gradient-8)"><path d="m384 440h32v-39.306l-32 34.448z"/><path d="m416 336.694-32 34.448v40.492l32-34.448z"/><path d="m416 152.694-32 34.448v36.776l32-34.448z"/></g><path d="m475.056 96h-259.056v16h251.056z" fill="url(#linear-gradient-11)"/><path d="m416 276.978-32 34.448v36.208l32-34.448z" fill="url(#linear-gradient-8)"/><path d="m416 128h-32v35.634l32-34.448z" fill="url(#linear-gradient-8)"/><path d="m416 212.978-32 34.448v40.492l32-34.448z" fill="url(#linear-gradient-8)"/><path d="m296 320h-16v3.888l-24.363-31.325-47.637 54.443v44.994h96v-37.255l-8.357-10.745h.357zm-56 56h-16v-16h16zm24-32h-16v-16h16zm24 32h-16v-16h16z" fill="url(#linear-gradient)"/></g></svg>